<svg width="153" viewBox="0 0 153 23" fill="none" xmlns="http://www.w3.org/2000/svg">
<path d="M20.4985 2.63416H14.3961L15.2918 8.61562L20.4985 2.63416Z" fill="#300C68"/>
<path d="M0 22.6308L4.23539 5.30852L2.20233 0.458252H11.0121C15.0782 0.458252 17.1113 2.19039 17.4498 4.9619C17.7888 7.73341 16.4333 9.46555 15.0777 10.1588C17.7883 10.1588 20.4989 11.8909 20.4989 15.7018C20.4989 20.8987 16.2377 22.6308 12.6408 22.6308H0Z" fill="url(#logo_first)"/>
<path d="M14.7743 5.45212C14.8429 4.88239 14.4467 4.36365 13.8893 4.29349C13.332 4.22332 12.8245 4.6283 12.7559 5.19803C12.6873 5.76776 13.0835 6.28649 13.6409 6.35666C14.1982 6.42682 14.7057 6.02185 14.7743 5.45212Z" fill="#300C68"/>
<path d="M100.774 2.63245H94.6711L95.5668 8.61391L100.774 2.63245Z" fill="#300C68"/>
<path d="M80.275 22.6289L84.5104 5.30663L82.4773 0.45636H91.2871C95.3532 0.45636 97.3863 2.18849 97.7248 4.96001C98.0633 7.73152 96.7083 9.46366 95.3527 10.1569C98.0633 10.1569 100.774 11.889 100.774 15.6999C100.774 20.8968 96.5127 22.6289 92.9158 22.6289H80.275Z" fill="url(#logo_second)"/>
<path d="M95.0564 5.45218C95.125 4.88245 94.7288 4.36371 94.1714 4.29355C93.6141 4.22338 93.1066 4.62836 93.038 5.19809C92.9694 5.76782 93.3656 6.28656 93.923 6.35672C94.4803 6.42688 94.9878 6.02191 95.0564 5.45218Z" fill="#300C68"/>
<path d="M113.826 14.9857C113.826 16.2958 113.502 17.3246 112.864 18.0442C112.224 18.7649 111.434 19.1154 110.448 19.1154C109.41 19.1154 108.678 18.811 108.21 18.1851C107.731 17.5452 107.488 16.5924 107.488 15.354V6.84955H103.12V15.7218C103.12 18.0721 103.653 19.8889 104.703 21.122C105.764 22.3676 107.282 22.9988 109.218 22.9988C110.423 22.9988 111.496 22.7171 112.405 22.1609C113.074 21.7523 113.633 21.2335 114.073 20.6134L114.308 22.6306H118.224V6.84955H113.826V14.9857Z" fill="#300C68"/>
<path d="M123.941 0C123.204 0 122.585 0.227394 122.104 0.675451C121.616 1.13024 121.368 1.71867 121.368 2.42441C121.368 3.12919 121.615 3.72147 122.102 4.18635C122.583 4.64595 123.202 4.87863 123.941 4.87863C124.68 4.87863 125.3 4.64547 125.781 4.18635C126.267 3.72195 126.514 3.12919 126.514 2.42441C126.514 1.71867 126.266 1.12976 125.778 0.675451C125.297 0.227394 124.679 0 123.941 0Z" fill="#300C68"/>
<path d="M126.139 6.84955H121.741V22.6306H126.139V6.84955Z" fill="#300C68"/>
<path d="M134.019 0.458252H129.621V22.6308H134.019V0.458252Z" fill="#300C68"/>
<path d="M27.4051 6.84955H23.007V22.6306H27.4051V6.84955Z" fill="#300C68"/>
<path d="M25.2073 0C24.4696 0 23.8517 0.227394 23.3703 0.675451C22.8818 1.13024 22.6344 1.71867 22.6344 2.42441C22.6344 3.12871 22.8813 3.72147 23.3679 4.18587C23.8494 4.64547 24.4681 4.87815 25.2073 4.87815C25.9464 4.87815 26.5652 4.64499 27.0466 4.18587C27.5333 3.72147 27.7801 3.12871 27.7801 2.42441C27.7801 1.71867 27.5323 1.13024 27.0443 0.675451C26.5628 0.227394 25.945 0 25.2073 0Z" fill="#300C68"/>
<path d="M34.5395 8.5939L34.264 6.84927H30.5284V22.6303H34.9265V15.4143C34.9265 14.3052 35.1004 13.435 35.4437 12.8283C35.7841 12.2264 36.2439 11.8154 36.8486 11.5717C37.4734 11.3202 38.1956 11.1928 38.9954 11.1928H40.0862V6.34448H39.8065C37.3446 6.34448 35.5767 7.10022 34.5395 8.5939Z" fill="#300C68"/>
<path d="M53.5302 0.458252V8.40406C53.0699 7.89446 52.5226 7.47669 51.8959 7.15603C51.0209 6.70846 49.9902 6.48203 48.8317 6.48203C47.3864 6.48203 46.076 6.84162 44.9372 7.55121C43.7998 8.25983 42.8886 9.24488 42.228 10.4794C41.5688 11.7111 41.2341 13.1346 41.2341 14.7105C41.2341 16.2859 41.5684 17.7142 42.2276 18.956C42.8882 20.2016 43.7989 21.1968 44.9353 21.9145C46.075 22.6347 47.3854 23 48.8312 23C50.1374 23 51.2221 22.7275 52.0548 22.189C52.6764 21.7871 53.211 21.3299 53.6511 20.8247L53.9999 22.6318H57.9283V0.458252H53.5302ZM53.3549 14.7403C53.3549 15.9643 52.9881 16.9777 52.265 17.7527C51.5348 18.5349 50.6198 18.9151 49.4679 18.9151C48.3352 18.9151 47.4249 18.5301 46.6853 17.7378C45.942 16.9421 45.5809 15.9518 45.5809 14.7105C45.5809 13.4707 45.9415 12.4914 46.683 11.7154C47.4226 10.9419 48.3338 10.5655 49.4679 10.5655C50.6198 10.5655 51.5348 10.9458 52.265 11.7279C52.9881 12.5034 53.3549 13.5168 53.3549 14.7403Z" fill="#300C68"/>
<path d="M148.602 8.40406C148.142 7.89446 147.594 7.47669 146.968 7.15603C146.093 6.70846 145.062 6.48203 143.903 6.48203C142.458 6.48203 141.148 6.84162 140.009 7.55121C138.872 8.25983 137.96 9.24488 137.3 10.4794C136.641 11.7111 136.306 13.1346 136.306 14.7105C136.306 16.2859 136.64 17.7142 137.299 18.956C137.96 20.2016 138.871 21.1968 140.007 21.9145C141.147 22.6347 142.457 23 143.903 23C145.209 23 146.294 22.7275 147.127 22.189C147.748 21.7871 148.283 21.3299 148.723 20.8247L149.072 22.6318H153V0.458252H148.602V8.40406ZM147.337 11.7279C148.06 12.5029 148.427 13.5168 148.427 14.7403C148.427 15.9643 148.06 16.9777 147.337 17.7527C146.607 18.5349 145.692 18.9151 144.54 18.9151C143.407 18.9151 142.497 18.5301 141.757 17.7378C141.014 16.9421 140.653 15.9518 140.653 14.7105C140.653 13.4711 141.013 12.4914 141.755 11.7154C142.495 10.9419 143.406 10.5655 144.54 10.5655C145.692 10.5655 146.607 10.9458 147.337 11.7279Z" fill="#300C68"/>
<path d="M72.7046 15.018C72.1577 14.4055 71.4224 13.9387 70.5182 13.6305C69.6559 13.3368 68.6996 13.0656 67.675 12.8238C66.7573 12.6089 66.0148 12.3724 65.4685 12.1219C64.8098 11.8205 64.8098 11.4864 64.8098 11.3763C64.8098 11.0633 64.9485 10.8157 65.2461 10.597C65.5705 10.3595 66.0553 10.2388 66.6881 10.2388C68.3455 10.2388 68.692 11.0292 68.8087 11.6239L68.8618 11.895H73.0755L73.0233 11.5104C72.8155 9.98212 72.1545 8.76342 71.0589 7.88798C69.9733 7.02119 68.5129 6.58179 66.7178 6.58179C64.7801 6.58179 63.2464 7.06494 62.1589 8.01826C61.0563 8.98457 60.4973 10.1956 60.4973 11.6171C60.4973 12.407 60.6853 13.0849 61.0568 13.6315C61.4174 14.1637 61.8951 14.6031 62.4763 14.9377C63.0344 15.2598 63.6564 15.528 64.3245 15.7347C64.9809 15.9386 65.6335 16.1126 66.2636 16.2535C67.2223 16.4698 67.9769 16.6919 68.5063 16.914C68.929 17.0919 69.126 17.4087 69.126 17.9111C69.126 18.2539 68.9751 18.5543 68.6648 18.8312C68.346 19.1154 67.81 19.2596 67.0709 19.2596C66.3247 19.2596 65.7139 19.0759 65.2555 18.713C64.7957 18.3495 64.5225 17.927 64.42 17.4212L64.3654 17.152H59.9251L59.9693 17.5299C60.0939 18.5918 60.4738 19.5399 61.0982 20.349C61.7188 21.1533 62.5548 21.7898 63.5831 22.2417C64.6019 22.6893 65.7948 22.9166 67.1296 22.9166C68.4269 22.9166 69.5722 22.6941 70.5333 22.2551C71.5089 21.809 72.2692 21.1816 72.7925 20.3894C73.32 19.5913 73.5768 18.6846 73.5561 17.701C73.557 16.5539 73.2702 15.6516 72.7046 15.018Z" fill="#300C68"/>
<defs>
<linearGradient id="logo_first" x1="-5" y1="28" x2="14.7735" y2="6.16266" gradientUnits="userSpaceOnUse">
<stop stop-color="#4146BD"/>
<stop offset="1" stop-color="#FF00D0"/>
</linearGradient>
<linearGradient id="logo_second" x1="94.5559" y1="5.65791" x2="80.3441" y2="22.8005" gradientUnits="userSpaceOnUse">
<stop stop-color="#FFC300"/>
<stop offset="1" stop-color="#FF0091"/>
</linearGradient>
</defs>
</svg>
