<svg width="290" height="54" viewBox="0 0 290 54" fill="none" xmlns="http://www.w3.org/2000/svg">
<path d="M3.08457 54C2.24332 54 1.51892 53.7235 0.911349 53.1706C0.303783 52.5716 0 51.8344 0 50.9589V5.20474C0 4.32928 0.303783 3.61509 0.911349 3.06217C1.51892 2.46317 2.24332 2.16367 3.08457 2.16367C3.92581 2.16367 4.65022 2.46317 5.25778 3.06217C5.86535 3.61509 6.16913 4.32928 6.16913 5.20474V50.9589C6.16913 51.8344 5.86535 52.5716 5.25778 53.1706C4.65022 53.7235 3.92581 54 3.08457 54Z" fill="#1a1a1a"/>
<path d="M36.1768 54C35.5693 54 34.9851 53.8387 34.4242 53.5162C33.9101 53.1937 33.5363 52.7559 33.3026 52.203L13.4632 6.3797C13.2763 5.91893 13.1828 5.52728 13.1828 5.20474C13.1828 4.42143 13.4632 3.73028 14.024 3.13129C14.5849 2.48621 15.3093 2.16367 16.1973 2.16367C16.8048 2.16367 17.3657 2.32494 17.8797 2.64748C18.4406 2.92394 18.8612 3.36167 19.1416 3.96067L38.981 49.784C39.1679 50.1526 39.2614 50.6134 39.2614 51.1663C39.2147 51.9496 38.8875 52.5947 38.2799 53.1015C37.7191 53.6083 37.0181 53.9078 36.1768 54ZM41.1542 41.8357C40.3597 41.8357 39.6353 41.5593 38.981 41.0064C38.3734 40.4074 38.0696 39.6932 38.0696 38.8638C38.0696 38.3569 38.1631 37.9192 38.3501 37.5506L52.9316 3.96067C53.1653 3.40775 53.5392 2.97002 54.0533 2.64748C54.5674 2.32494 55.1282 2.16367 55.7358 2.16367C56.577 2.16367 57.3014 2.44013 57.909 2.99306C58.5166 3.54598 58.8204 4.28321 58.8204 5.20474C58.8204 5.66551 58.7503 6.05716 58.6101 6.3797L44.0285 39.9696C43.7948 40.5686 43.3975 41.0294 42.8367 41.3519C42.3226 41.6745 41.7618 41.8357 41.1542 41.8357Z" fill="#1a1a1a"/>
<path d="M84.0462 43.7019C84.0462 44.7616 83.6723 45.6601 82.9245 46.3973C82.2235 47.0885 81.3355 47.4341 80.2606 47.4341C79.1857 47.4341 78.2743 47.0885 77.5266 46.3973C76.8255 45.6601 76.475 44.7616 76.475 43.7019C76.475 42.6421 76.8255 41.7666 77.5266 41.0755C78.2743 40.3382 79.1857 39.9696 80.2606 39.9696C81.3355 39.9696 82.2235 40.3382 82.9245 41.0755C83.6723 41.7666 84.0462 42.6421 84.0462 43.7019ZM100.03 54C99.4223 54 98.8381 53.8387 98.2773 53.5162C97.7632 53.1937 97.3893 52.7559 97.1556 52.203L77.3162 6.3797C77.1293 6.01108 77.0358 5.59639 77.0358 5.13563C77.0826 4.35232 77.3863 3.66117 77.9472 3.06217C78.508 2.46317 79.2324 2.16367 80.1204 2.16367C80.728 2.16367 81.2888 2.32494 81.8029 2.64748C82.3637 2.97002 82.761 3.40775 82.9947 3.96067L102.834 49.784C103.021 50.1526 103.114 50.5442 103.114 50.9589C103.114 51.7883 102.811 52.4795 102.203 53.0324C101.642 53.5853 100.918 53.9078 100.03 54ZM60.5614 54C59.7669 54 59.0425 53.7005 58.3882 53.1015C57.7807 52.5025 57.4769 51.7653 57.4769 50.8898C57.4769 50.5212 57.547 50.1526 57.6872 49.784L72.2688 16.194C72.5024 15.595 72.8763 15.1343 73.3904 14.8117C73.9513 14.4892 74.5355 14.3279 75.143 14.3279C75.9375 14.3279 76.6386 14.6274 77.2461 15.2264C77.9004 15.7793 78.2276 16.4705 78.2276 17.2999C78.2276 17.7606 78.1341 18.1753 77.9472 18.544L63.3656 52.203C63.1319 52.7559 62.758 53.1937 62.2439 53.5162C61.7298 53.8387 61.169 54 60.5614 54Z" fill="#1a1a1a"/>
<path d="M117.824 23.127C117.428 23.127 117.094 23.0036 116.823 22.7569C116.573 22.4897 116.448 22.1608 116.448 21.7702V2.86775H110.943C110.567 2.86775 110.244 2.73412 109.973 2.46688C109.702 2.19963 109.567 1.88099 109.567 1.51096C109.567 1.12037 109.702 0.801736 109.973 0.555047C110.244 0.287803 110.567 0.154181 110.943 0.154181H117.918C118.251 0.154181 118.543 0.298083 118.793 0.585885C119.064 0.853129 119.2 1.16149 119.2 1.51096V21.7702C119.2 22.1608 119.064 22.4897 118.793 22.7569C118.522 23.0036 118.199 23.127 117.824 23.127ZM122.046 2.86775C121.671 2.86775 121.348 2.73412 121.076 2.46688C120.805 2.19963 120.67 1.88099 120.67 1.51096C120.67 1.12037 120.805 0.801736 121.076 0.555047C121.348 0.287803 121.671 0.154181 122.046 0.154181H124.673C125.07 0.154181 125.403 0.287803 125.674 0.555047C125.945 0.801736 126.081 1.12037 126.081 1.51096C126.081 1.88099 125.945 2.19963 125.674 2.46688C125.403 2.73412 125.07 2.86775 124.673 2.86775H122.046Z" fill="#1a1a1a"/>
<path d="M125.744 11.4401C126.12 11.4401 126.412 11.5738 126.62 11.841C126.849 12.1083 126.975 12.4063 126.995 12.7353C126.995 12.9203 126.964 13.0847 126.902 13.2286C126.839 13.3931 126.777 13.5473 126.714 13.6912C126.672 13.8351 126.631 13.9892 126.589 14.1537H136.598C136.306 12.9614 135.753 11.9644 134.94 11.1626C134.147 10.3403 133.074 9.92918 131.718 9.92918C130.759 9.92918 129.883 10.1759 129.091 10.6692C128.987 10.7104 128.872 10.7617 128.747 10.8234C128.622 10.8645 128.507 10.8851 128.403 10.8851C128.069 10.8851 127.757 10.772 127.465 10.5459C127.194 10.3198 127.058 10.0217 127.058 9.65166C127.058 9.42552 127.121 9.21995 127.246 9.03494C127.371 8.84992 127.527 8.68546 127.715 8.54156C128.278 8.15097 128.914 7.86317 129.623 7.67815C130.332 7.49314 131.03 7.40063 131.718 7.40063C132.803 7.40063 133.803 7.6062 134.721 8.01735C135.659 8.42849 136.462 8.99382 137.129 9.71333C137.817 10.4123 138.349 11.2346 138.724 12.1802C139.121 13.1258 139.319 14.1434 139.319 15.233C139.319 15.603 139.193 15.9216 138.943 16.1889C138.714 16.4356 138.422 16.5589 138.068 16.5589H126.558C126.787 17.7718 127.339 18.7688 128.215 19.55C129.112 20.3106 130.342 20.6909 131.906 20.6909C132.907 20.6909 133.845 20.434 134.721 19.92C134.95 19.7761 135.2 19.7042 135.472 19.7042C135.805 19.7042 136.097 19.8275 136.347 20.0742C136.598 20.3003 136.723 20.5881 136.723 20.9376C136.723 21.4104 136.514 21.7805 136.097 22.0477C135.492 22.4589 134.825 22.7569 134.095 22.9419C133.366 23.127 132.636 23.2195 131.906 23.2195C130.676 23.2195 129.56 23.0242 128.559 22.6336C127.579 22.2224 126.745 21.6674 126.057 20.9685C125.369 20.2489 124.837 19.4061 124.462 18.4399C124.087 17.4737 123.899 16.4356 123.899 15.3255C123.899 14.791 123.941 14.2565 124.024 13.722C124.128 13.1875 124.295 12.6839 124.525 12.211C124.629 11.9849 124.796 11.7999 125.025 11.656C125.254 11.5121 125.494 11.4401 125.744 11.4401Z" fill="#1a1a1a"/>
<path d="M153.968 12.0877C153.801 12.0877 153.623 12.0466 153.436 11.9644C153.248 11.8821 153.092 11.7896 152.967 11.6868C152.425 11.1729 151.82 10.7617 151.153 10.4534C150.485 10.145 149.787 9.99085 149.057 9.99085C148.557 9.99085 148.056 10.0628 147.556 10.2067C147.076 10.3506 146.628 10.5459 146.211 10.7926C146.107 10.8337 145.992 10.8851 145.867 10.9468C145.742 10.9879 145.627 11.0084 145.523 11.0084C145.189 11.0084 144.876 10.8851 144.584 10.6384C144.313 10.3917 144.178 10.0834 144.178 9.71333C144.178 9.24051 144.386 8.87048 144.803 8.60323C145.408 8.19209 146.086 7.894 146.836 7.70899C147.587 7.50342 148.327 7.40063 149.057 7.40063C150.183 7.40063 151.257 7.62676 152.279 8.07902C153.3 8.51073 154.186 9.11716 154.937 9.89834C155.166 10.1245 155.281 10.4226 155.281 10.7926C155.281 11.1421 155.156 11.4504 154.906 11.7177C154.656 11.9644 154.343 12.0877 153.968 12.0877ZM149.057 23.2195C147.952 23.2195 146.909 23.0139 145.929 22.6028C144.97 22.1916 144.126 21.6263 143.396 20.9068C142.666 20.1873 142.093 19.3444 141.676 18.3782C141.259 17.412 141.05 16.3842 141.05 15.2946C141.05 14.2668 141.259 13.2595 141.676 12.2727C141.926 11.7382 142.343 11.471 142.927 11.471C143.26 11.471 143.552 11.5943 143.802 11.841C144.074 12.0877 144.209 12.3858 144.209 12.7353C144.209 12.9203 144.167 13.095 144.084 13.2595C143.959 13.5678 143.855 13.8967 143.771 14.2462C143.709 14.5957 143.677 14.9452 143.677 15.2946C143.677 16.0347 143.813 16.7336 144.084 17.3915C144.376 18.0288 144.762 18.5941 145.241 19.0875C145.742 19.5603 146.315 19.9406 146.961 20.2284C147.629 20.4956 148.327 20.6293 149.057 20.6293C150.6 20.6293 151.903 20.0742 152.967 18.9641C153.259 18.6763 153.592 18.5324 153.968 18.5324C154.322 18.5324 154.624 18.6558 154.875 18.9024C155.146 19.1491 155.281 19.4575 155.281 19.8275C155.281 19.992 155.25 20.1564 155.187 20.3209C155.125 20.4854 155.041 20.619 154.937 20.7218C154.583 21.1124 154.176 21.4618 153.717 21.7702C153.259 22.0785 152.769 22.3458 152.247 22.5719C151.747 22.7775 151.215 22.9317 150.652 23.0345C150.11 23.1578 149.578 23.2195 149.057 23.2195Z" fill="#1a1a1a"/>
<path d="M159.106 23.0653C158.73 23.0653 158.417 22.9419 158.167 22.6953C157.917 22.428 157.792 22.1197 157.792 21.7702V1.29511C157.792 0.945637 157.917 0.647556 158.167 0.400868C158.417 0.133623 158.73 0 159.106 0C159.46 0 159.762 0.133623 160.013 0.400868C160.284 0.647556 160.419 0.945637 160.419 1.29511V21.7702C160.419 22.1197 160.284 22.428 160.013 22.6953C159.762 22.9419 159.46 23.0653 159.106 23.0653ZM169.927 14.3696C169.927 13.7323 169.813 13.1464 169.583 12.6119C169.375 12.0774 169.083 11.6149 168.708 11.2243C168.332 10.8337 167.894 10.5356 167.394 10.33C166.893 10.1039 166.362 9.99085 165.799 9.99085C165.069 9.99085 164.391 10.1245 163.766 10.3917C163.432 10.5356 163.182 10.6076 163.015 10.6076C162.682 10.6076 162.39 10.4842 162.139 10.2375C161.889 9.97029 161.764 9.66193 161.764 9.31246C161.764 9.08633 161.816 8.87048 161.92 8.6649C162.025 8.43877 162.181 8.27432 162.39 8.17153C162.994 7.90428 163.557 7.70899 164.079 7.58565C164.6 7.4623 165.173 7.40063 165.799 7.40063C166.737 7.40063 167.613 7.57537 168.426 7.92484C169.239 8.27431 169.948 8.75741 170.553 9.37413C171.178 9.99085 171.668 10.7309 172.023 11.5943C172.377 12.4372 172.555 13.3622 172.555 14.3696V21.7702C172.555 22.1197 172.419 22.428 172.148 22.6953C171.898 22.9419 171.595 23.0653 171.241 23.0653C170.866 23.0653 170.553 22.9419 170.303 22.6953C170.052 22.428 169.927 22.1197 169.927 21.7702V14.3696Z" fill="#1a1a1a"/>
<path d="M177.295 23.0653C176.92 23.0653 176.607 22.9419 176.357 22.6953C176.107 22.428 175.981 22.1197 175.981 21.7702V8.78825C175.981 8.43877 176.107 8.14069 176.357 7.89401C176.607 7.62676 176.92 7.49314 177.295 7.49314C177.65 7.49314 177.952 7.62676 178.202 7.89401C178.473 8.14069 178.609 8.43877 178.609 8.78825V21.7702C178.609 22.1197 178.473 22.428 178.202 22.6953C177.952 22.9419 177.65 23.0653 177.295 23.0653ZM188.117 14.3696C188.117 13.7323 188.002 13.1464 187.773 12.6119C187.564 12.0774 187.272 11.6149 186.897 11.2243C186.522 10.8337 186.084 10.5356 185.583 10.33C185.083 10.1039 184.551 9.99085 183.988 9.99085C183.259 9.99085 182.581 10.1245 181.955 10.3917C181.622 10.5356 181.372 10.6076 181.205 10.6076C180.871 10.6076 180.579 10.4842 180.329 10.2375C180.079 9.97029 179.954 9.66193 179.954 9.31246C179.954 9.08633 180.006 8.87048 180.11 8.6649C180.214 8.43877 180.371 8.27432 180.579 8.17153C181.184 7.90428 181.747 7.70899 182.268 7.58565C182.789 7.4623 183.363 7.40063 183.988 7.40063C184.927 7.40063 185.802 7.57537 186.616 7.92484C187.429 8.27431 188.138 8.75741 188.742 9.37413C189.368 9.99085 189.858 10.7309 190.213 11.5943C190.567 12.4372 190.744 13.3622 190.744 14.3696V21.7702C190.744 22.1197 190.609 22.428 190.338 22.6953C190.087 22.9419 189.785 23.0653 189.431 23.0653C189.055 23.0653 188.742 22.9419 188.492 22.6953C188.242 22.428 188.117 22.1197 188.117 21.7702V14.3696Z" fill="#1a1a1a"/>
<path d="M207.558 19.18C207.161 19.18 206.838 19.0463 206.588 18.7791C206.359 18.5119 206.244 18.2035 206.244 17.854C206.244 17.7101 206.275 17.5559 206.338 17.3915C206.63 16.7131 206.776 16.0141 206.776 15.2946C206.776 14.5751 206.63 13.8967 206.338 13.2595C206.067 12.6016 205.681 12.0363 205.181 11.5635C204.701 11.0701 204.138 10.6898 203.492 10.4226C202.845 10.1348 202.147 9.99085 201.396 9.99085C200.916 9.99085 200.426 10.0628 199.926 10.2067C199.446 10.3506 198.998 10.5356 198.581 10.7617C198.477 10.8029 198.362 10.8543 198.237 10.9159C198.112 10.957 197.997 10.9776 197.893 10.9776C197.538 10.9776 197.226 10.8543 196.955 10.6076C196.704 10.3609 196.579 10.0525 196.579 9.68249C196.579 9.45636 196.631 9.24051 196.736 9.03494C196.84 8.82936 196.996 8.67518 197.205 8.5724C197.851 8.20236 198.529 7.91456 199.238 7.70899C199.947 7.50342 200.666 7.40063 201.396 7.40063C202.501 7.40063 203.533 7.6062 204.492 8.01735C205.472 8.42849 206.327 8.99382 207.057 9.71333C207.787 10.4328 208.36 11.2757 208.777 12.2419C209.194 13.1875 209.403 14.2051 209.403 15.2946C209.403 15.8291 209.351 16.3636 209.247 16.8981C209.163 17.4326 209.007 17.9362 208.777 18.4091C208.673 18.6352 208.506 18.8202 208.277 18.9641C208.048 19.108 207.808 19.18 207.558 19.18ZM195.234 11.4401C195.61 11.4401 195.912 11.5738 196.141 11.841C196.392 12.1083 196.527 12.4063 196.548 12.7353C196.548 12.9203 196.517 13.0847 196.454 13.2286C196.329 13.537 196.225 13.8762 196.141 14.2462C196.058 14.5957 196.016 14.9554 196.016 15.3255C196.016 16.045 196.152 16.7336 196.423 17.3915C196.715 18.0288 197.101 18.5941 197.58 19.0875C198.081 19.5603 198.654 19.9406 199.3 20.2284C199.947 20.4956 200.645 20.6293 201.396 20.6293C202.397 20.6293 203.335 20.3723 204.211 19.8584C204.44 19.7145 204.691 19.6425 204.962 19.6425C205.295 19.6425 205.587 19.7761 205.837 20.0434C206.088 20.2901 206.213 20.5881 206.213 20.9376C206.213 21.4104 206.004 21.7805 205.587 22.0477C204.982 22.4589 204.315 22.7569 203.585 22.9419C202.856 23.127 202.126 23.2195 201.396 23.2195C200.291 23.2195 199.248 23.0139 198.268 22.6028C197.309 22.1916 196.465 21.6263 195.735 20.9068C195.005 20.1873 194.432 19.3547 194.015 18.4091C193.598 17.4429 193.389 16.415 193.389 15.3255C193.389 14.791 193.431 14.2565 193.514 13.722C193.618 13.1875 193.785 12.6839 194.015 12.211C194.119 11.9849 194.286 11.7999 194.515 11.656C194.744 11.5121 194.984 11.4401 195.234 11.4401Z" fill="#1a1a1a"/>
<path d="M213.369 23.0653C212.993 23.0653 212.681 22.9419 212.43 22.6953C212.18 22.428 212.055 22.1197 212.055 21.7702V1.29511C212.055 0.945637 212.18 0.647556 212.43 0.400868C212.681 0.133623 212.993 0 213.369 0C213.723 0 214.026 0.133623 214.276 0.400868C214.547 0.647556 214.682 0.945637 214.682 1.29511V21.7702C214.682 22.1197 214.547 22.428 214.276 22.6953C214.026 22.9419 213.723 23.0653 213.369 23.0653Z" fill="#1a1a1a"/>
<path d="M231.505 19.18C231.109 19.18 230.786 19.0463 230.536 18.7791C230.306 18.5119 230.192 18.2035 230.192 17.854C230.192 17.7101 230.223 17.5559 230.285 17.3915C230.577 16.7131 230.723 16.0141 230.723 15.2946C230.723 14.5751 230.577 13.8967 230.285 13.2595C230.014 12.6016 229.629 12.0363 229.128 11.5635C228.649 11.0701 228.086 10.6898 227.439 10.4226C226.793 10.1348 226.094 9.99085 225.344 9.99085C224.864 9.99085 224.374 10.0628 223.874 10.2067C223.394 10.3506 222.946 10.5356 222.529 10.7617C222.425 10.8029 222.31 10.8543 222.185 10.9159C222.06 10.957 221.945 10.9776 221.841 10.9776C221.486 10.9776 221.173 10.8543 220.902 10.6076C220.652 10.3609 220.527 10.0525 220.527 9.68249C220.527 9.45636 220.579 9.24051 220.683 9.03494C220.788 8.82936 220.944 8.67518 221.153 8.5724C221.799 8.20236 222.477 7.91456 223.186 7.70899C223.895 7.50342 224.614 7.40063 225.344 7.40063C226.449 7.40063 227.481 7.6062 228.44 8.01735C229.42 8.42849 230.275 8.99382 231.005 9.71333C231.735 10.4328 232.308 11.2757 232.725 12.2419C233.142 13.1875 233.351 14.2051 233.351 15.2946C233.351 15.8291 233.299 16.3636 233.194 16.8981C233.111 17.4326 232.954 17.9362 232.725 18.4091C232.621 18.6352 232.454 18.8202 232.225 18.9641C231.995 19.108 231.756 19.18 231.505 19.18ZM219.182 11.4401C219.557 11.4401 219.86 11.5738 220.089 11.841C220.339 12.1083 220.475 12.4063 220.496 12.7353C220.496 12.9203 220.464 13.0847 220.402 13.2286C220.277 13.537 220.173 13.8762 220.089 14.2462C220.006 14.5957 219.964 14.9554 219.964 15.3255C219.964 16.045 220.1 16.7336 220.371 17.3915C220.663 18.0288 221.048 18.5941 221.528 19.0875C222.028 19.5603 222.602 19.9406 223.248 20.2284C223.895 20.4956 224.593 20.6293 225.344 20.6293C226.345 20.6293 227.283 20.3723 228.159 19.8584C228.388 19.7145 228.638 19.6425 228.909 19.6425C229.243 19.6425 229.535 19.7761 229.785 20.0434C230.035 20.2901 230.16 20.5881 230.16 20.9376C230.16 21.4104 229.952 21.7805 229.535 22.0477C228.93 22.4589 228.263 22.7569 227.533 22.9419C226.803 23.127 226.074 23.2195 225.344 23.2195C224.239 23.2195 223.196 23.0139 222.216 22.6028C221.257 22.1916 220.412 21.6263 219.683 20.9068C218.953 20.1873 218.379 19.3547 217.962 18.4091C217.545 17.4429 217.337 16.415 217.337 15.3255C217.337 14.791 217.378 14.2565 217.462 13.722C217.566 13.1875 217.733 12.6839 217.962 12.211C218.067 11.9849 218.233 11.7999 218.463 11.656C218.692 11.5121 218.932 11.4401 219.182 11.4401Z" fill="#1a1a1a"/>
<path d="M251.235 22.7878C251.235 23.8773 251.026 24.8949 250.609 25.8405C250.192 26.8067 249.619 27.6496 248.889 28.3691C248.159 29.0886 247.304 29.6539 246.324 30.0651C245.365 30.4762 244.333 30.6818 243.228 30.6818C242.602 30.6818 242.029 30.6201 241.508 30.4968C240.986 30.3734 240.423 30.1781 239.819 29.9109C239.61 29.8081 239.454 29.6436 239.35 29.4175C239.245 29.2119 239.193 28.9961 239.193 28.7699C239.193 28.4205 239.318 28.1121 239.568 27.8449C239.819 27.5982 240.111 27.4748 240.444 27.4748C240.611 27.4748 240.861 27.5468 241.195 27.6907C241.82 27.9579 242.498 28.0916 243.228 28.0916C243.979 28.0916 244.677 27.9477 245.323 27.6599C245.97 27.3926 246.533 27.0123 247.012 26.5189C247.513 26.0461 247.899 25.4808 248.17 24.8229C248.462 24.1857 248.608 23.5073 248.608 22.7878V15.0171C248.608 14.3182 248.462 13.6706 248.17 13.0744C247.878 12.4577 247.482 11.9232 246.981 11.471C246.481 11.0187 245.907 10.659 245.261 10.3917C244.614 10.1245 243.937 9.99085 243.228 9.99085C242.748 9.99085 242.258 10.0628 241.758 10.2067C241.278 10.3506 240.83 10.5356 240.413 10.7617C240.309 10.8029 240.194 10.8543 240.069 10.9159C239.944 10.957 239.829 10.9776 239.725 10.9776C239.37 10.9776 239.058 10.8543 238.787 10.6076C238.536 10.3609 238.411 10.0525 238.411 9.68249C238.411 9.45636 238.463 9.24051 238.568 9.03494C238.672 8.82936 238.828 8.67518 239.037 8.5724C239.683 8.20236 240.361 7.91456 241.07 7.70899C241.779 7.50342 242.498 7.40063 243.228 7.40063C244.27 7.40063 245.24 7.58565 246.137 7.95568C247.054 8.30515 247.878 8.79853 248.608 9.4358V8.78825C248.608 8.43877 248.733 8.14069 248.983 7.89401C249.254 7.62676 249.567 7.49314 249.921 7.49314C250.297 7.49314 250.609 7.62676 250.859 7.89401C251.11 8.14069 251.235 8.43877 251.235 8.78825V22.7878ZM237.066 11.4401C237.462 11.4401 237.775 11.5738 238.005 11.841C238.234 12.1083 238.359 12.4063 238.38 12.7353C238.38 12.9203 238.349 13.0847 238.286 13.2286C237.994 13.907 237.848 14.606 237.848 15.3255C237.848 16.045 237.984 16.7336 238.255 17.3915C238.547 18.0288 238.933 18.5941 239.412 19.0875C239.913 19.5603 240.486 19.9406 241.132 20.2284C241.779 20.4956 242.477 20.6293 243.228 20.6293C243.958 20.6293 244.635 20.4956 245.261 20.2284C245.595 20.0845 245.845 20.0125 246.012 20.0125C246.345 20.0125 246.637 20.1462 246.887 20.4134C247.138 20.6601 247.263 20.9582 247.263 21.3076C247.263 21.5338 247.21 21.7599 247.106 21.986C247.002 22.1916 246.846 22.3458 246.637 22.4486C246.032 22.7158 245.469 22.9111 244.948 23.0345C244.427 23.1578 243.853 23.2195 243.228 23.2195C242.123 23.2195 241.08 23.0139 240.1 22.6028C239.141 22.1916 238.297 21.6263 237.567 20.9068C236.837 20.1873 236.264 19.3547 235.846 18.4091C235.429 17.4429 235.221 16.415 235.221 15.3255C235.221 14.791 235.263 14.2565 235.346 13.722C235.45 13.1875 235.617 12.6839 235.846 12.211C235.951 11.9849 236.118 11.7999 236.347 11.656C236.576 11.5121 236.816 11.4401 237.066 11.4401Z" fill="#1a1a1a"/>
<path d="M255.995 23.0653C255.619 23.0653 255.307 22.9419 255.056 22.6953C254.806 22.428 254.681 22.1197 254.681 21.7702V8.78825C254.681 8.43877 254.806 8.14069 255.056 7.89401C255.307 7.62676 255.619 7.49314 255.995 7.49314C256.349 7.49314 256.652 7.62676 256.902 7.89401C257.173 8.14069 257.308 8.43877 257.308 8.78825V21.7702C257.308 22.1197 257.173 22.428 256.902 22.6953C256.652 22.9419 256.349 23.0653 255.995 23.0653ZM257.652 3.39196C257.652 3.84422 257.486 4.23481 257.152 4.56372C256.839 4.87208 256.454 5.02626 255.995 5.02626C255.536 5.02626 255.14 4.87208 254.806 4.56372C254.493 4.23481 254.337 3.84422 254.337 3.39196C254.337 2.9397 254.493 2.55939 254.806 2.25102C255.14 1.92211 255.536 1.75765 255.995 1.75765C256.454 1.75765 256.839 1.92211 257.152 2.25102C257.486 2.55939 257.652 2.9397 257.652 3.39196Z" fill="#1a1a1a"/>
<path d="M261.808 11.4401C262.183 11.4401 262.475 11.5738 262.684 11.841C262.913 12.1083 263.038 12.4063 263.059 12.7353C263.059 12.9203 263.028 13.0847 262.965 13.2286C262.903 13.3931 262.84 13.5473 262.778 13.6912C262.736 13.8351 262.694 13.9892 262.653 14.1537H272.661C272.369 12.9614 271.817 11.9644 271.004 11.1626C270.211 10.3403 269.137 9.92918 267.782 9.92918C266.823 9.92918 265.947 10.1759 265.155 10.6692C265.051 10.7104 264.936 10.7617 264.811 10.8234C264.686 10.8645 264.571 10.8851 264.467 10.8851C264.133 10.8851 263.82 10.772 263.528 10.5459C263.257 10.3198 263.122 10.0217 263.122 9.65166C263.122 9.42552 263.184 9.21995 263.309 9.03494C263.435 8.84992 263.591 8.68546 263.779 8.54156C264.342 8.15097 264.978 7.86317 265.687 7.67815C266.395 7.49314 267.094 7.40063 267.782 7.40063C268.866 7.40063 269.867 7.6062 270.785 8.01735C271.723 8.42849 272.526 8.99382 273.193 9.71333C273.881 10.4123 274.413 11.2346 274.788 12.1802C275.184 13.1258 275.382 14.1434 275.382 15.233C275.382 15.603 275.257 15.9216 275.007 16.1889C274.778 16.4356 274.486 16.5589 274.131 16.5589H262.621C262.851 17.7718 263.403 18.7688 264.279 19.55C265.176 20.3106 266.406 20.6909 267.97 20.6909C268.971 20.6909 269.909 20.434 270.785 19.92C271.014 19.7761 271.264 19.7042 271.535 19.7042C271.869 19.7042 272.161 19.8275 272.411 20.0742C272.661 20.3003 272.786 20.5881 272.786 20.9376C272.786 21.4104 272.578 21.7805 272.161 22.0477C271.556 22.4589 270.889 22.7569 270.159 22.9419C269.429 23.127 268.7 23.2195 267.97 23.2195C266.74 23.2195 265.624 23.0242 264.623 22.6336C263.643 22.2224 262.809 21.6674 262.121 20.9685C261.433 20.2489 260.901 19.4061 260.526 18.4399C260.15 17.4737 259.963 16.4356 259.963 15.3255C259.963 14.791 260.005 14.2565 260.088 13.722C260.192 13.1875 260.359 12.6839 260.588 12.211C260.693 11.9849 260.859 11.7999 261.089 11.656C261.318 11.5121 261.558 11.4401 261.808 11.4401Z" fill="#1a1a1a"/>
<path d="M281.993 15.9114C281.889 15.9114 281.732 15.9011 281.524 15.8805C281.336 15.86 281.18 15.8291 281.055 15.788C280.805 15.7058 280.471 15.5824 280.054 15.418C279.658 15.2535 279.262 15.0274 278.865 14.7396C278.469 14.4312 278.125 14.0509 277.833 13.5987C277.562 13.1258 277.427 12.5502 277.427 11.8718C277.427 11.214 277.573 10.6178 277.865 10.0834C278.177 9.52831 278.605 9.05549 279.147 8.6649C279.71 8.25376 280.367 7.9454 281.117 7.73983C281.868 7.5137 282.702 7.40063 283.619 7.40063C284.579 7.40063 285.413 7.52397 286.122 7.77066C286.851 8.01735 287.456 8.32571 287.936 8.69574C288.415 9.04521 288.791 9.42552 289.062 9.83667C289.354 10.2273 289.541 10.5767 289.625 10.8851C289.666 10.9879 289.687 11.0701 289.687 11.1318C289.687 11.1935 289.687 11.2448 289.687 11.286C289.687 11.6149 289.562 11.913 289.312 12.1802C289.062 12.4269 288.759 12.5502 288.405 12.5502C288.113 12.5502 287.863 12.468 287.654 12.3035C287.446 12.1391 287.289 11.9232 287.185 11.656C287.185 11.6354 287.122 11.5326 286.997 11.3476C286.893 11.1421 286.695 10.9365 286.403 10.7309C286.132 10.5048 285.757 10.2992 285.277 10.1142C284.818 9.92918 284.224 9.83667 283.494 9.83667C283.077 9.83667 282.65 9.87778 282.212 9.96001C281.795 10.0217 281.42 10.1348 281.086 10.2992C280.752 10.4431 280.481 10.6384 280.273 10.8851C280.064 11.1318 279.96 11.4196 279.96 11.7485C279.96 12.2213 280.158 12.5913 280.554 12.8586C280.971 13.1053 281.503 13.3109 282.149 13.4753C282.441 13.5575 282.671 13.7014 282.838 13.907C283.025 14.092 283.119 14.3387 283.119 14.6471C283.119 14.9966 283.015 15.2946 282.806 15.5413C282.598 15.788 282.327 15.9114 281.993 15.9114ZM283.588 23.2195C282.275 23.2195 281.201 23.055 280.367 22.7261C279.533 22.3972 278.865 22.0169 278.365 21.5852C277.885 21.1535 277.552 20.7218 277.364 20.2901C277.197 19.8584 277.114 19.55 277.114 19.365C277.114 19.0155 277.239 18.7174 277.489 18.4707C277.76 18.2035 278.073 18.0699 278.427 18.0699C278.699 18.0699 278.938 18.1521 279.147 18.3166C279.376 18.481 279.543 18.6969 279.647 18.9641C279.647 18.9847 279.699 19.0977 279.804 19.3033C279.929 19.5089 280.127 19.7247 280.398 19.9509C280.69 20.177 281.096 20.3928 281.618 20.5984C282.139 20.7834 282.806 20.8759 283.619 20.8759C285.017 20.8759 285.997 20.6806 286.56 20.2901C287.143 19.8789 287.435 19.3753 287.435 18.7791C287.435 18.2446 287.279 17.8335 286.966 17.5457C286.674 17.2579 286.132 17.0009 285.34 16.7748C285.048 16.6925 284.808 16.5384 284.62 16.3122C284.454 16.0861 284.37 15.8291 284.37 15.5413C284.37 15.233 284.485 14.9554 284.714 14.7088C284.944 14.4415 285.235 14.3079 285.59 14.3079C285.652 14.3079 285.725 14.3079 285.809 14.3079C285.892 14.3079 285.986 14.3284 286.09 14.3696C286.424 14.4518 286.81 14.5751 287.248 14.7396C287.706 14.904 288.134 15.1507 288.53 15.4797C288.947 15.788 289.291 16.2094 289.562 16.7439C289.854 17.2784 290 17.9568 290 18.7791C290 20.1976 289.427 21.2974 288.28 22.0785C287.133 22.8392 285.569 23.2195 283.588 23.2195Z" fill="#1a1a1a"/>
</svg>
