<?xml version="1.0" encoding="utf-8"?>
<!-- Generator: Adobe Illustrator 26.0.1, SVG Export Plug-In . SVG Version: 6.00 Build 0)  -->
<svg version="1.1" id="Слой_1" xmlns="http://www.w3.org/2000/svg" xmlns:xlink="http://www.w3.org/1999/xlink" x="0px" y="0px"
	 viewBox="0 0 463.69 106.71" style="enable-background:new 0 0 463.69 106.71;" fill="#1a1a1a" xml:space="preserve">
<g>
	<path d="M5.97,6.91H0.02v-6.9h6.96v6.9H5.97L5.97,6.91z M54.66,68.26h-5.95v-6.9h6.96v6.9H54.66L54.66,68.26z M30.32,68.26h-5.95
		v-6.9h6.96v6.9H30.32L30.32,68.26z M5.97,68.26H0.02v-6.9h6.96v6.9H5.97L5.97,68.26z M30.31,47.81h-5.95v-6.9h6.96v6.9H30.31
		L30.31,47.81z M5.97,47.81H0.02v-6.9h6.96v6.9H5.97L5.97,47.81z M54.66,47.81h-5.95v-6.9h6.96v6.9H54.66L54.66,47.81z M78.99,47.81
		h-5.95v-6.9H80v6.9H78.99L78.99,47.81z M30.31,27.35h-5.95v-6.9h6.96v6.9H30.31L30.31,27.35z M5.97,27.36H0.02v-6.9h6.96v6.9H5.97
		L5.97,27.36z M54.65,27.36H48.7v-6.9h6.96v6.9H54.65L54.65,27.36z M78.99,27.36h-5.95v-6.9H80v6.9H78.99L78.99,27.36z M30.31,6.9
		h-5.95V0h6.96v6.9H30.31L30.31,6.9z M54.65,6.91H48.7v-6.9h6.96v6.9H54.65L54.65,6.91z M78.99,6.91h-5.95v-6.9H80v6.9H78.99
		L78.99,6.91z M103.33,6.91h-5.95v-6.9h6.96v6.9H103.33L103.33,6.91z M103.33,27.36h-5.95v-6.9h6.96v6.9H103.33L103.33,27.36z"/>
	<path d="M154.12,70.15c0.08,0.58,0.22,1.18,0.4,1.77c1.45,4.8,5.92,8,11.34,9.85c5.79,1.98,12.57,2.42,18.1,1.64
		c1.44-0.2,2.83-0.5,4.08-0.88c2.25-0.67,4.59-1.63,6.5-2.97c1.73-1.22,3.12-2.77,3.71-4.73c1.64-5.38-1.13-8.69-5.27-10.79
		c-4.94-2.5-11.77-3.56-16.59-4.23c-11.61-1.64-20.08-4.5-25.6-8.73c-5.94-4.54-8.54-10.52-8.03-18.05
		c0.51-7.47,4.15-13.45,10.34-17.54c5.89-3.89,14.11-6,24.08-5.95c9.85,0.05,17.84,2.63,23.53,7.02c6.1,4.7,9.58,11.41,9.97,19.28
		l0.14,2.93h-15.09v-2.8c0-4.01-1.88-6.86-4.64-8.8c-3.92-2.76-9.57-3.86-14.52-3.86c-6.11,0-11.03,1.07-14.41,3.03
		c-2.98,1.72-4.73,4.17-4.95,7.17l-0.01,0.32c-0.1,1.94-0.47,9.06,21.5,11.89c15.04,1.9,23.88,5.83,28.95,10.57
		c5.43,5.07,6.65,10.94,6.49,16.4c-0.19,6.12-3.85,13.14-11.4,18.08c-5.82,3.81-14,6.42-24.68,6.42c-9.03,0-19.55-1.97-27.38-7.12
		c-6.38-4.2-10.98-10.44-11.65-19.32l-0.23-3.01h15L154.12,70.15L154.12,70.15z M0,85.76c45.1,17.53,69.53-5.53,93.13-27.8
		c3.73-3.52,7.44-7.03,11.21-10.38v19.02l-1.63,1.54C76.49,92.88,49.37,118.47,0,100.9V85.76L0,85.76z M460.89,96.58h-11.46V10.11
		h14.27v86.46H460.89L460.89,96.58z M396.87,64.19l-15.35-33.7l-15.35,33.7H396.87L396.87,64.19z M337.33,92.59L376,10.12h10.62
		c13.55,28.8,27.05,57.63,40.55,86.45h-15.35l-8.96-19.69h-43.18l-8.86,19.69h-15.37L337.33,92.59L337.33,92.59z M266.45,58.48
		l-14.09,14.74v23.45h-14.38V10.12h14.38v43.77l41.8-43.77h18.89l-36.8,38.28l40.13,48.17h-18.3L266.45,58.48L266.45,58.48z"/>
</g>
</svg>
