<svg viewBox="0 0 160 21" fill="none" xmlns="http://www.w3.org/2000/svg">
<path d="M7.67255 16.3929C6.06933 16.3929 4.69514 16.0334 3.54999 15.3144C2.40483 14.5954 1.52688 13.6176 0.916126 12.3809C0.305375 11.1443 0 9.74944 0 8.19643C0 6.62425 0.314918 5.21983 0.944755 3.98318C1.58413 2.74652 2.48117 1.7735 3.63587 1.0641C4.79057 0.3547 6.15522 0 7.72981 0C9.55252 0 11.0794 0.464944 12.3104 1.39483C13.551 2.31513 14.3431 3.57575 14.6866 5.17669L10.7931 6.21203C10.5641 5.40677 10.1633 4.77885 9.59069 4.32829C9.02766 3.87773 8.38828 3.65244 7.67255 3.65244C6.85186 3.65244 6.17908 3.85376 5.65421 4.25639C5.12935 4.64944 4.74286 5.19107 4.49474 5.8813C4.24662 6.56194 4.12257 7.33365 4.12257 8.19643C4.12257 9.54812 4.4184 10.6458 5.01006 11.4894C5.61127 12.3234 6.49877 12.7404 7.67255 12.7404C8.55051 12.7404 9.21852 12.5391 9.67658 12.1365C10.1346 11.7338 10.4782 11.1586 10.7072 10.4109L14.6866 11.2449C14.2477 12.8938 13.4174 14.164 12.1959 15.0555C10.9744 15.9471 9.46663 16.3929 7.67255 16.3929Z" fill="black"/>
<path d="M20.0564 15.9615V3.88252H14.9891V0.43139H29.0172V3.88252H23.9499V15.9615H20.0564Z" fill="black"/>
<path d="M47.8142 15.9615L43.2027 10.0089H42.4726V15.9615H38.6075V0.43139H45.5103C46.8703 0.43139 47.9961 0.669877 48.8885 1.14685C49.7904 1.61424 50.4584 2.25899 50.8926 3.0811C51.3362 3.89362 51.558 4.81393 51.558 5.84202C51.558 6.90929 51.3076 7.85836 50.8067 8.68924C50.3058 9.51053 49.5043 10.0856 48.4022 10.4109L53.4695 15.9615H47.8142ZM42.4726 7.21964H45.3381C46.0826 7.21964 46.6504 7.0374 47.0417 6.67292C47.4425 6.29886 47.6429 5.76598 47.6429 5.07428C47.6429 4.42953 47.4473 3.91748 47.0561 3.53814C46.665 3.14921 46.1117 2.95475 45.3954 2.95475H42.4726V7.21964Z" fill="black"/>
<path d="M55.5869 15.9615V0.43139H67.161V3.88252H59.4804V6.24325H66.5453V9.55129H59.4804V12.5104H67.3333V15.9615H55.5869Z" fill="black"/>
<path d="M78.0063 16.3929C76.6318 16.3929 75.4196 16.1342 74.3699 15.6168C73.3296 15.0899 72.5186 14.352 71.9365 13.4029C71.3639 12.4538 71.0729 11.3288 71.0633 10.0281H75.1294C75.2108 11.0538 75.5448 11.846 76.1317 12.4063C76.7281 12.9571 77.5391 13.2325 78.5649 13.2325C79.5333 13.2325 80.2922 12.9857 80.8411 12.492C81.3996 11.9984 81.6788 11.3479 81.6788 10.5407C81.6788 10.0281 81.5495 9.59546 81.2911 9.24266C81.0422 8.88986 80.6128 8.58039 79.9925 8.31424C79.3818 8.04809 78.5268 7.75778 77.4275 7.44331C75.8816 6.98316 74.7511 6.35524 74.0354 5.55954C73.3297 4.76385 72.9767 3.74532 72.9767 2.50397C72.9767 1.45447 73.2438 0.536164 73.778 -0.347116C74.3126 -1.2304 75.0524 -1.91578 75.997 -2.40234C76.9513 -2.8889 78.0492 -3.13218 79.2902 -3.13218C81.0843 -3.13218 82.5442 -2.66478 83.6697 -1.72998C84.8048 -0.804774 85.4155 0.460843 85.502 2.07261H81.4359C81.3926 1.23093 81.0987 0.586182 80.5547 0.138628C80.0105 -0.308926 79.2708 -0.532703 78.3358 -0.532703C77.5248 -0.532703 76.8809 -0.323383 76.4036 0.0950578C75.9359 0.513498 75.7021 1.06922 75.7021 1.76218C75.7021 2.35595 75.9454 2.84721 76.4324 3.23597C76.929 3.62473 77.7687 3.98839 78.9521 4.32695C80.4981 4.78711 81.6432 5.24257 82.3876 5.69333C83.1416 6.14409 83.7284 6.73785 84.1483 7.47462C84.5777 8.21139 84.7924 9.12678 84.7924 10.2208C84.7924 11.2751 84.5157 12.2146 83.9622 13.0393C83.4183 13.8544 82.6504 14.4911 81.6598 14.9493C80.6692 15.3979 79.494 15.6229 78.1339 15.6229L78.0063 16.3929Z" fill="black"/>
<path d="M87.1299 15.9615V0.43139H95.9413C97.3636 0.43139 98.5326 0.689117 99.4487 1.20457C100.365 1.71044 101.043 2.39583 101.483 3.26073C101.933 4.12563 102.158 5.09387 102.158 6.16544C102.158 7.24659 101.933 8.22442 101.483 9.09891C101.043 9.9734 100.365 10.6636 99.4487 11.1695C98.5421 11.6659 97.3731 11.9141 95.9413 11.9141H91.0234V15.9615H87.1299ZM91.0234 8.53196H95.3389C96.1788 8.53196 96.8134 8.32263 97.2432 7.90396C97.6826 7.4853 97.9024 6.90929 97.9024 6.17593C97.9024 5.47255 97.6826 4.91211 97.2432 4.49455C96.8134 4.077 96.1884 3.86823 95.3676 3.86823H91.0234V8.53196Z" fill="black"/>
<path d="M111.986 16.3929C110.421 16.3929 109.069 16.0334 107.93 15.3144C106.791 14.5954 105.914 13.6176 105.297 12.3809C104.69 11.1443 104.387 9.74944 104.387 8.19643C104.387 6.62425 104.7 5.21983 105.325 3.98318C105.96 2.74652 106.854 1.7735 108.006 1.0641C109.158 0.3547 110.516 0 112.081 0C113.9 0 115.424 0.464944 116.653 1.39483C117.892 2.31513 118.683 3.57575 119.026 5.17669L115.12 6.21203C114.893 5.40677 114.494 4.77885 113.924 4.32829C113.364 3.87773 112.729 3.65244 112.018 3.65244C111.202 3.65244 110.531 3.85376 110.009 4.25639C109.487 4.64944 109.103 5.19107 108.857 5.8813C108.61 6.56194 108.487 7.33365 108.487 8.19643C108.487 9.54812 108.781 10.6458 109.369 11.4894C109.966 12.3234 110.847 12.7404 112.012 12.7404C112.887 12.7404 113.551 12.5391 114.004 12.1365C114.457 11.7338 114.799 11.1586 115.026 10.4109L118.979 11.2449C118.543 12.8938 117.716 14.164 116.499 15.0555C115.281 15.9471 113.785 16.3929 112.003 16.3929H111.986Z" fill="#FB5801"/>
<path d="M136.199 15.9615V3.88252H131.164V0.43139H145.101V3.88252H140.067V15.9615H136.199Z" fill="#FB5801"/>
<path d="M153.032 16.3929C151.439 16.3929 150.074 16.0334 148.936 15.3144C147.798 14.5954 146.926 13.6176 146.319 12.3809C145.713 11.1443 145.409 9.74944 145.409 8.19643C145.409 6.62425 145.722 5.21983 146.348 3.98318C146.983 2.74652 147.874 1.7735 149.021 1.0641C150.169 0.3547 151.524 0 153.089 0C154.9 0 156.417 0.464944 157.64 1.39483C158.872 2.31513 159.659 3.57575 160 5.17669L156.132 6.21203C155.905 5.40677 155.506 4.77885 154.938 4.32829C154.378 3.87773 153.743 3.65244 153.032 3.65244C152.217 3.65244 151.548 3.85376 151.027 4.25639C150.505 4.64944 150.121 5.19107 149.875 5.8813C149.628 6.56194 149.505 7.33365 149.505 8.19643C149.505 9.54812 149.799 10.6458 150.387 11.4894C150.984 12.3234 151.866 12.7404 153.032 12.7404C153.904 12.7404 154.568 12.5391 155.023 12.1365C155.478 11.7338 155.819 11.1586 156.047 10.4109L160 11.2449C159.564 12.8938 158.739 14.164 157.526 15.0555C156.312 15.9471 154.814 16.3929 153.032 16.3929Z" fill="#FB5801"/>
</svg>
